PathFileType  4	(X/Y/Z) C:\Users\antoi\Documents\MyRepositories\mobilecap\ResultsAnalysis
DataRate	CameraRate	NumFrames	NumMarkers	Units	OrigDataRate	OrigDataStartFrame	OrigNumFrames
100.0	100.0	4	51	mm	100.0	113	299
Frame#	Time	r_knee			r_shank_antsup			r_ankle			r_calc			r_5meta			r_toe			L_knee			L_shank_antsup			L_ankle			L_calc			L_5meta			L_toe			r_sh2			r_sh3			r_sh4			L_sh2			L_sh3			r_thigh1			r_thigh2			r_thigh3			r_thigh4			r_thigh5			L_thigh1			L_thigh2			L_thigh3			L_thigh4			r.ASIS			r.PSIS			L.ASIS			L.PSIS			C7			R_Shoulder			L_Shoulder			R_Sternum			L_Sternum			R_humerus			R_elbow_med			R_elbow_lat			R_forearm			R_wrist_radius			R_wrist_ulna			L_humerus			L_elbow_med			L_elbow_lat			L_forearm			L_wrist_radius			L_wrist_ulna			R_HJC			L_HJC			R_HJC_reg			L_HJC_reg			
		X1	Y1	Z1	X2	Y2	Z2	X3	Y3	Z3	X4	Y4	Z4	X5	Y5	Z5	X6	Y6	Z6	X7	Y7	Z7	X8	Y8	Z8	X9	Y9	Z9	X10	Y10	Z10	X11	Y11	Z11	X12	Y12	Z12	X13	Y13	Z13	X14	Y14	Z14	X15	Y15	Z15	X16	Y16	Z16	X17	Y17	Z17	X18	Y18	Z18	X19	Y19	Z19	X20	Y20	Z20	X21	Y21	Z21	X22	Y22	Z22	X23	Y23	Z23	X24	Y24	Z24	X25	Y25	Z25	X26	Y26	Z26	X27	Y27	Z27	X28	Y28	Z28	X29	Y29	Z29	X30	Y30	Z30	X31	Y31	Z31	X32	Y32	Z32	X33	Y33	Z33	X34	Y34	Z34	X35	Y35	Z35	X36	Y36	Z36	X37	Y37	Z37	X38	Y38	Z38	X39	Y39	Z39	X40	Y40	Z40	X41	Y41	Z41	X42	Y42	Z42	X43	Y43	Z43	X44	Y44	Z44	X45	Y45	Z45	X46	Y46	Z46	X47	Y47	Z47	X48	Y48	Z48	X49	Y49	Z49	X50	Y50	Z50	X51	Y51	Z51	

113	1.12000000	-1005.11764	694.26838	-432.53960	-1019.60009	576.21466	-451.56327	-1237.94609	399.23814	-464.66420	-1301.73112	363.14087	-510.73327	-1143.65520	347.05398	-419.29969	-1104.35428	360.69039	-462.44889	-973.56267	698.56747	-707.91061	-989.80776	585.14873	-662.06451	-1230.47423	419.81564	-719.34087	-1294.97830	389.48567	-681.15836	-1137.84652	349.95343	-750.14991	-1093.87910	357.61287	-696.87986	-1095.58644	492.89973	-464.80768	-1063.75664	604.56413	-397.61919	-1149.87346	534.03527	-417.48792	-1009.93957	633.48922	-736.16427	-1093.55926	544.88807	-754.51802	-992.46045	1003.13409	-412.30550	-963.12705	898.66662	-414.21893	-1002.35794	859.23139	-378.76030	-1095.15882	970.37261	-379.60814	-1058.45735	860.90428	-380.10329	-994.84465	989.52776	-742.04241	-940.09626	863.31150	-729.09665	-1098.22932	952.95170	-760.75671	-1042.22298	822.59974	-743.25719	-976.99033	1111.64278	-449.87661	-1124.04332	1230.60853	-519.51016	-974.75067	1108.72021	-694.58301	-1125.72818	1230.62310	-637.83468	-915.97430	1624.19644	-570.42154	-856.60285	1580.25729	-421.83856	-858.13878	1580.75577	-723.57348	-805.63010	1539.21255	-550.28603	-805.99374	1535.98035	-593.23576	-839.46894	1460.58119	-360.08649	-902.61939	1252.36185	-381.25546	-867.76514	1271.03154	-314.07425	-784.06212	1171.22385	-305.36806	-727.03269	1083.91891	-311.80371	-752.45657	1069.59016	-288.00749	-834.18044	1439.62024	-783.42788	-868.24540	1241.39480	-738.39650	-854.85880	1256.77357	-812.08219	-786.77195	1180.97107	-830.53598	-721.26282	1068.54986	-822.23571	-744.53568	1054.46872	-840.53464	-1089.85852	1087.04578	-476.48013	-1085.52510	1079.44332	-665.65556	-1071.20684	1080.10086	-482.80502	-1073.50669	1080.12129	-644.31334	
114	1.13000000	-1004.05743	695.09011	-433.03537	-1019.32913	576.97904	-451.91750	-1236.83794	400.21566	-463.83248	-1301.53622	363.87074	-510.68613	-1143.59842	347.05869	-419.29430	-1104.28244	360.60113	-462.42976	-972.15411	698.13264	-705.40629	-989.63883	585.67367	-659.23640	-1229.97532	420.15342	-718.53445	-1294.78209	389.75749	-680.43069	-1137.77361	350.18739	-749.80891	-1093.81747	357.60434	-696.51461	-1095.15298	493.59388	-464.68602	-1063.49030	605.51616	-397.67857	-1149.33260	534.60996	-417.96605	-1008.92516	633.31451	-734.46600	-1092.22811	544.52507	-753.19081	-982.66548	1004.03058	-413.41025	-955.85190	898.37681	-415.89840	-996.37197	860.18680	-379.84241	-1085.89426	974.23238	-380.49159	-1052.39719	863.71669	-380.80384	-984.45236	990.10243	-740.62964	-933.57080	862.04562	-726.80480	-1088.76863	956.61811	-760.78911	-1037.02964	824.77321	-742.25529	-965.28454	1116.26725	-450.26155	-1113.39475	1233.94319	-520.16208	-962.64375	1113.64167	-695.04707	-1115.05274	1234.05325	-638.48657	-912.87825	1631.44531	-570.59275	-852.46183	1589.20842	-422.13517	-854.51838	1589.90806	-723.50582	-800.96830	1548.35904	-550.04915	-801.07860	1545.23810	-593.27262	-832.19654	1470.39917	-360.09574	-890.08082	1260.69555	-379.59551	-854.67035	1280.42759	-313.26968	-764.50088	1186.01560	-307.64870	-701.86245	1102.97348	-316.46745	-725.73587	1086.88560	-291.94605	-827.26961	1449.77959	-783.64184	-855.43082	1250.70978	-738.50106	-842.72368	1266.35059	-812.01256	-769.50599	1193.77770	-828.87064	-696.59062	1086.15699	-818.18778	-718.59156	1070.62432	-836.86309	-1077.91630	1090.65986	-477.14961	-1073.20541	1083.25470	-666.32410	-1059.07770	1083.91998	-483.25292	-1061.34164	1084.07050	-644.81397	
115	1.14000000	-1003.81817	697.07076	-433.15960	-1019.52632	579.08706	-451.52811	-1236.01698	401.51644	-462.87997	-1301.27094	365.34469	-510.39904	-1143.53143	347.00501	-419.20907	-1104.12652	360.52876	-462.25179	-972.21038	698.89407	-703.49363	-990.12162	586.94725	-657.23883	-1229.50120	420.34792	-718.14077	-1294.59806	390.21781	-679.94480	-1137.67300	350.39898	-749.42035	-1093.76995	357.68025	-696.26556	-1094.79980	495.20754	-464.19958	-1063.98579	607.54085	-397.27694	-1149.49286	536.13241	-417.85094	-1008.87159	634.05464	-733.00538	-1091.61613	544.66780	-751.83140	-972.19250	1005.66656	-414.34024	-948.50057	898.83346	-416.94422	-990.34394	862.23108	-380.50555	-1076.06553	979.32998	-381.25379	-1046.32370	867.80363	-381.29310	-973.74924	991.78029	-739.38569	-927.27690	861.34281	-724.73300	-1079.19234	961.65780	-761.28449	-1032.28247	828.22507	-741.40758	-952.61084	1122.10474	-450.76244	-1101.74223	1238.34246	-520.60517	-949.49129	1119.84681	-695.10629	-1103.39628	1238.62856	-639.11815	-909.52979	1640.01378	-570.71563	-848.23501	1599.45511	-422.49982	-850.62998	1600.29719	-723.33551	-796.02721	1558.69479	-550.05538	-796.11231	1555.57229	-593.38779	-824.88128	1481.47109	-360.15464	-878.20201	1270.53531	-377.76681	-842.00293	1291.37422	-312.46284	-746.19459	1202.56808	-310.17366	-678.66225	1123.90570	-321.38989	-700.79564	1106.31184	-296.06697	-820.48011	1461.10433	-784.00633	-843.31061	1261.39441	-738.67016	-830.80802	1277.13349	-811.85745	-753.07800	1208.23767	-827.23531	-673.45461	1105.83986	-814.43615	-694.18645	1088.68338	-833.01330	-1064.94837	1095.40306	-477.72562	-1059.79395	1088.26041	-666.89853	-1045.79448	1088.98063	-483.73646	-1048.04534	1089.36830	-645.00713	
116	1.15000000	-1004.24339	700.45412	-432.67449	-1019.95630	582.52029	-450.65802	-1235.70953	403.24341	-462.26185	-1300.65019	367.95423	-509.98523	-1143.34813	346.85983	-419.09328	-1103.80023	360.39146	-461.98334	-973.30702	701.22162	-702.40285	-991.00551	589.57905	-655.99091	-1229.00573	420.96138	-718.11831	-1294.23567	391.52990	-680.08529	-1137.50952	350.59063	-749.17862	-1093.66209	357.73668	-696.12284	-1094.42666	497.98902	-463.24537	-1064.83362	610.62706	-396.64685	-1149.93058	538.82176	-417.23964	-1009.42535	635.86124	-731.87148	-1091.24885	545.63545	-750.84339	-961.13245	1007.99090	-415.49254	-941.18176	900.22597	-417.32677	-984.27127	865.60887	-380.61403	-1065.64637	985.67170	-381.89117	-1040.11761	873.24826	-381.39312	-962.53326	994.69918	-738.03511	-921.39612	861.94335	-723.07812	-1069.04833	968.23550	-761.96323	-1027.73716	833.06719	-740.81445	-938.99892	1129.19654	-450.90106	-1089.20875	1243.79544	-521.00138	-935.39728	1127.64683	-694.86547	-1090.89509	1244.37743	-639.44586	-905.95629	1649.57609	-570.48853	-843.90958	1610.85325	-422.81564	-846.56820	1611.90340	-723.06275	-790.97208	1570.09620	-550.28143	-791.03200	1566.89818	-593.47416	-817.64587	1493.75168	-360.19249	-866.77908	1281.64182	-376.20186	-829.85509	1303.65135	-311.77238	-729.24919	1220.51036	-312.80682	-657.55348	1146.19205	-326.47855	-677.54443	1127.22073	-300.43226	-813.51551	1473.59226	-784.28164	-831.74834	1273.37062	-738.96713	-818.95305	1289.03224	-811.61187	-737.48153	1224.24678	-826.42726	-652.38484	1126.98375	-810.54697	-671.60405	1108.37407	-829.29027	-1050.99783	1101.28326	-478.14083	-1045.27767	1094.57257	-667.31270	-1031.48336	1095.22690	-483.87542	-1033.77582	1096.01799	-644.89504	
